<svg id="Layer_1" data-name="Layer 1" xmlns="http://www.w3.org/2000/svg" viewBox="0 0 192.95 109.35"><defs><style>.cls-1{fill:#fff;}.cls-2{fill:none;stroke:#231f20;}.cls-3{fill:#00aeef;}</style></defs><title>L3Pilot_Logo_font_white_blackline</title><path class="cls-1" d="M85.26,50.83a4.67,4.67,0,0,1-1.32,1.24,5.65,5.65,0,0,1-1.57.66,6.74,6.74,0,0,1-1.66.21h-9l0,.17Q71,55.5,70.39,57.88H61.82q1.77-6.68,3.56-13.37L66.05,42H84.14a4.86,4.86,0,0,1,1.07.11,3,3,0,0,1,1,.39,2.19,2.19,0,0,1,.73.75,2.39,2.39,0,0,1,.27,1.2A5,5,0,0,1,87,45.73l-.87,3.2a5.46,5.46,0,0,1-.88,1.9Zm-7.25-5a2,2,0,0,0,.11-.72.35.35,0,0,0-.1-.3,1.19,1.19,0,0,0-.57-.09H74.36q-.72,2.71-1.46,5.45h2.8a1.51,1.51,0,0,0,.94-.25,2,2,0,0,0,.53-1L78,45.83v0Zm11.72-1.06c.24-.91.49-1.81.73-2.72h8l-.72,2.72ZM86.17,57.88l3.09-11.53h8.1L94.27,57.88Zm10.71,0c0-.13.06-.26.1-.39s.09-.27.22-.79l.34-1.29,2.9-10.79.33-1.23c0-.09.08-.32.18-.68l.17-.68h8.09l-3.54,13.26c-.16.62-.32,1.22-.49,1.81l-.21.78Zm30.81-.79a4.2,4.2,0,0,1-2.8.79H110.45a3.45,3.45,0,0,1-2-.43,1.46,1.46,0,0,1-.56-1.29,6.65,6.65,0,0,1,.27-1.62l1.27-4.73a5.28,5.28,0,0,1,1.42-2.67,4.25,4.25,0,0,1,2.8-.79H128.1a3.61,3.61,0,0,1,2,.42,1.48,1.48,0,0,1,.55,1.3,6.65,6.65,0,0,1-.27,1.62l-1.27,4.74a5.13,5.13,0,0,1-1.42,2.66Zm-5.77-7.73A1,1,0,0,0,122,49c0-.1,0-.29-.52-.29H119a.92.92,0,0,0-.6.16,1.27,1.27,0,0,0-.31.64l-1.42,5.35a1,1,0,0,0-.07.4c0,.1,0,.29.47.29h2.49a1,1,0,0,0,.65-.16,1.31,1.31,0,0,0,.31-.64l1.42-5.35v0Zm11.8,8.52a3.36,3.36,0,0,1-1.93-.48,1.77,1.77,0,0,1-.65-1.57,5.41,5.41,0,0,1,.22-1.42l2.85-10.65h8.1c-.21.77-.41,1.55-.62,2.32l-.07.27h3.76l-.51,1.91H141.1l0,.16-1.68,6.31a1.82,1.82,0,0,0-.08.57.57.57,0,0,0,.34.55,2.28,2.28,0,0,0,.89.12h2.62c-.18.64-.35,1.28-.52,1.91Z" transform="translate(-3.72 -1.54)"/><path class="cls-2" d="M85.26,50.83a4.67,4.67,0,0,1-1.32,1.24,5.65,5.65,0,0,1-1.57.66,6.74,6.74,0,0,1-1.66.21h-9l0,.17Q71,55.5,70.39,57.88H61.82q1.77-6.68,3.56-13.37L66.05,42H84.14a4.86,4.86,0,0,1,1.07.11,3,3,0,0,1,1,.39,2.19,2.19,0,0,1,.73.75,2.39,2.39,0,0,1,.27,1.2A5,5,0,0,1,87,45.73l-.87,3.2a5.46,5.46,0,0,1-.88,1.9Zm-7.25-5a2,2,0,0,0,.11-.72.35.35,0,0,0-.1-.3,1.19,1.19,0,0,0-.57-.09H74.36q-.72,2.71-1.46,5.45h2.8a1.51,1.51,0,0,0,.94-.25,2,2,0,0,0,.53-1L78,45.83v0Zm11.72-1.06c.24-.91.49-1.81.73-2.72h8l-.72,2.72ZM86.17,57.88l3.09-11.53h8.1L94.27,57.88Zm10.71,0c0-.13.06-.26.1-.39s.09-.27.22-.79l.34-1.29,2.9-10.79.33-1.23c0-.09.08-.32.18-.68l.17-.68h8.09l-3.54,13.26c-.16.62-.32,1.22-.49,1.81l-.21.78Zm30.81-.79a4.2,4.2,0,0,1-2.8.79H110.45a3.45,3.45,0,0,1-2-.43,1.46,1.46,0,0,1-.56-1.29,6.65,6.65,0,0,1,.27-1.62l1.27-4.73a5.28,5.28,0,0,1,1.42-2.67,4.25,4.25,0,0,1,2.8-.79H128.1a3.61,3.61,0,0,1,2,.42,1.48,1.48,0,0,1,.55,1.3,6.65,6.65,0,0,1-.27,1.62l-1.27,4.74a5.13,5.13,0,0,1-1.42,2.66Zm-5.77-7.73A1,1,0,0,0,122,49c0-.1,0-.29-.52-.29H119a.92.92,0,0,0-.6.16,1.27,1.27,0,0,0-.31.64l-1.42,5.35a1,1,0,0,0-.07.4c0,.1,0,.29.47.29h2.49a1,1,0,0,0,.65-.16,1.31,1.31,0,0,0,.31-.64l1.42-5.35v0Zm11.8,8.52a3.36,3.36,0,0,1-1.93-.48,1.77,1.77,0,0,1-.65-1.57,5.41,5.41,0,0,1,.22-1.42l2.85-10.65h8.1c-.21.77-.41,1.55-.62,2.32l-.07.27h3.76l-.51,1.91H141.1l0,.16-1.68,6.31a1.82,1.82,0,0,0-.08.57.57.57,0,0,0,.34.55,2.28,2.28,0,0,0,.89.12h2.62c-.18.64-.35,1.28-.52,1.91Z" transform="translate(-3.72 -1.54)"/><path class="cls-3" d="M194.57,64.29a4.21,4.21,0,0,0-2.86,1h0l.23-.88H189.6L188,70.58h2.4l.8-3a1.86,1.86,0,0,1,1.88-1.47c.8,0,1.14.39.93,1.17l-.88,3.31h2.4l1.07-4c.4-1.52-.5-2.25-2-2.25Zm-6.72,3.23c.57-2.18-.65-3.32-3.42-3.32s-4.6,1.14-5.18,3.32.65,3.31,3.42,3.31,4.6-1.14,5.18-3.31Zm-2.54,0a2.16,2.16,0,0,1-2.22,1.73c-1.08,0-1.61-.58-1.3-1.73A2.16,2.16,0,0,1,184,65.78c1.08,0,1.61.58,1.3,1.74Zm-6-3.77.38-1.45h-2.4l-.38,1.45Zm-.19.7h-2.39l-1.63,6.13h2.4l1.62-6.13Zm-3.49,0H174l.51-2h-2.39l-.52,2h-1.25L169.94,66h1.25l-.79,3c-.35,1.32.2,1.71,1.76,1.71A13.88,13.88,0,0,0,174,70.6l.39-1.49-.85,0c-.65,0-.76-.08-.62-.63l.66-2.47h1.58l.42-1.58Zm-6.49,1.92c.46-1.72-1.12-2.08-3.35-2.08-1.88,0-3.67.26-4.38,2.08h2.39c.26-.52.75-.77,1.63-.77,1.05,0,1.46.23,1.34.66s-.22.45-.85.5l-2.43.16c-1.75.11-2.81.61-3.17,2s.53,1.91,2.49,1.91a4.88,4.88,0,0,0,3.09-.81,1.75,1.75,0,0,0,0,.56h2.39a1.87,1.87,0,0,1,.05-1.11l.82-3.1Zm-2.68,1.35-.1.37c-.23.84-1.13,1.36-2.51,1.36-.65,0-1-.27-.88-.75s.36-.56.86-.62l1.66-.19a6.94,6.94,0,0,0,1-.17ZM160,66.37c.41-1.52-.54-2.08-1.82-2.08a4.35,4.35,0,0,0-2.86,1,1.78,1.78,0,0,0-1.89-1,4.33,4.33,0,0,0-2.74,1h0l.24-.89h-2.33L147,70.58h2.4l.9-3.43a1.54,1.54,0,0,1,1.63-1.05c.64,0,.94.32.79.91l-1,3.57h2.4l.9-3.43a1.54,1.54,0,0,1,1.63-1.05c.64,0,.94.32.79.91l-.95,3.57h2.4L160,66.37Zm-13.18,1.15c.58-2.18-.65-3.32-3.41-3.32s-4.6,1.14-5.18,3.32.65,3.31,3.42,3.31,4.6-1.14,5.17-3.31Zm-2.53,0a2.16,2.16,0,0,1-2.22,1.73c-1.09,0-1.61-.58-1.31-1.73A2.17,2.17,0,0,1,143,65.78c1.08,0,1.61.58,1.3,1.74Zm-6-3.07h-1.58l.51-2h-2.39l-.52,2H133.1L132.68,66h1.25l-.79,3c-.35,1.32.2,1.71,1.76,1.71a13.88,13.88,0,0,0,1.85-.12l.39-1.49-.85,0c-.65,0-.76-.08-.62-.63l.66-2.47h1.58l.42-1.58Zm-7.49,6.13,1.62-6.13h-2.39l-.82,3.1A1.87,1.87,0,0,1,127.36,69c-.8,0-1.14-.36-.87-1.4l.84-3.17h-2.4l-1,3.9c-.49,1.85.48,2.48,1.94,2.48a4.21,4.21,0,0,0,2.86-1h0l-.21.79Zm-10.73,0H123l-1.33-8.08h-3.29l-5.64,8.08h2.88l.84-1.31H120l.14,1.31Zm-.33-3h-2.26l1.93-3h0l.31,3ZM108.17,70l1.48-5.58h-2.33l-.2.78h0c-.32-.67-1.18-.94-2.25-.94a4.27,4.27,0,0,0-4.42,3c-.45,1.68.23,3,2.83,3a4.46,4.46,0,0,0,2.66-.78l-.11.43a1.92,1.92,0,0,1-2.21,1.6c-.7,0-1.3-.17-1.27-.73H99.68c-.21,1.7,1.16,2.11,3.58,2.11,2.94,0,4.37-.86,4.91-2.91Zm-1.69-2.67a2,2,0,0,1-2.16,1.43c-1.21,0-1.59-.64-1.38-1.46a2.05,2.05,0,0,1,2.15-1.46c1.23,0,1.62.63,1.39,1.49Zm-6.8-.82c.4-1.52-.5-2.25-2-2.25a4.21,4.21,0,0,0-2.86,1h0l.23-.88H92.71l-1.63,6.13h2.4l.8-3a1.86,1.86,0,0,1,1.88-1.47c.8,0,1.14.39.93,1.17l-.88,3.31h2.4l1.07-4Zm-8.1-2.79L92,62.3H89.57l-.39,1.45Zm-.19.7H89l-1.63,6.13h2.4l1.62-6.13ZM84,70.58l4.45-6.13H85.71l-2.54,4-.4-4H80l1.21,6.13Zm-4.31-6.83.38-1.45h-2.4l-.38,1.45Zm-.19.7h-2.4l-1.62,6.13h2.4l1.62-6.13ZM75.72,66.6l.6-2.24a4.11,4.11,0,0,0-.8-.07,3.88,3.88,0,0,0-2.86,1.37h0L73,64.45H70.59L69,70.58h2.4L72,68.21a2.31,2.31,0,0,1,2.45-1.81,4,4,0,0,1,1.27.2ZM69,66.54c.71-2.69-.28-4-2.78-4H60.36l-2.14,8.08H63.7a4.91,4.91,0,0,0,5.27-4Zm-2.78,0a2.62,2.62,0,0,1-2.55,2.24H61.39l1.18-4.46h2c1.43,0,2,.72,1.58,2.22ZM60.08,48.2a9.53,9.53,0,0,0,.36-2.43,3.73,3.73,0,0,0-1.15-2.93,5.33,5.33,0,0,0-3.61-1H33.35l-1.26,4.72h9.66A1.31,1.31,0,0,1,43.23,48a1.83,1.83,0,0,1-.09.67c-.1.43-.78,2.86-.81,2.92a2.79,2.79,0,0,1-.67,1.15,1.92,1.92,0,0,1-1.52.58H33.67L32.4,58h6.47c.93,0,1.4.35,1.4,1.1a8.29,8.29,0,0,1-.27,1.3q-.09.4-.27,1l-.59,2.2a2.82,2.82,0,0,1-3,2.25H26.61L25.3,70.59H48.53a7.45,7.45,0,0,0,5.1-1.71,9,9,0,0,0,2.72-4.68l1.44-5.39A5.1,5.1,0,0,0,58,57.28a3,3,0,0,0-.36-1.6,4.49,4.49,0,0,0-.76-.92,6.45,6.45,0,0,0,1.32-1.37A7.52,7.52,0,0,0,59.4,50.8l.68-2.6ZM27.84,53.35,41.71,1.54H40.36L26.49,53.35H20.86l6.23-23.3H11.22L5,53.31,3.72,58H25.25L11.08,110.89h1.36L26.6,58h4.33l1.26-4.63Z" transform="translate(-3.72 -1.54)"/></svg>